<svg width="26" height="19" viewBox="0 0 26 19" fill="none" xmlns="http://www.w3.org/2000/svg">
<path d="M25.5121 1.56267V17.1877C25.5121 18.0731 24.835 18.7502 23.9496 18.7502H22.3871V4.56996L13.0121 11.3022L3.63708 4.56996V18.7502H2.07458C1.18813 18.7502 0.512085 18.0731 0.512085 17.1877V1.56267C0.512085 1.11996 0.680835 0.729332 0.961043 0.450166C1.10728 0.304707 1.28112 0.189963 1.47236 0.112682C1.66359 0.0354018 1.86835 -0.00285392 2.07458 0.000165803H2.59542L13.0121 7.55225L23.4288 0.000165803H23.9496C24.3923 0.000165803 24.7829 0.168916 25.0631 0.450166C25.3444 0.729332 25.5121 1.11996 25.5121 1.56267Z" fill="black"/>
</svg>
