<svg width="586" height="269" viewBox="0 0 586 269" fill="none" xmlns="http://www.w3.org/2000/svg">
<g clip-path="url(#clip0_223_1188)">
<path d="M128.123 150.066L128.123 150.069C128.123 151.477 127.621 152.827 126.73 153.844C125.839 154.861 124.628 155.469 123.345 155.557L122.196 155.635L122.754 156.156L114.845 169.475L114.76 169.619L114.778 169.785L115.524 176.578L109.237 182.522L103.881 183.67L102.811 182.332C102.811 182.332 102.811 182.332 102.811 182.332C101.871 181.158 101.273 179.708 101.096 178.165C100.92 176.636 101.166 175.087 101.799 173.71L117.875 151.149L117.989 150.989L117.964 150.794C117.865 150.04 117.913 149.272 118.104 148.539C118.295 147.806 118.624 147.125 119.069 146.539C119.515 145.952 120.066 145.472 120.688 145.128C121.31 144.784 121.989 144.582 122.684 144.532C123.379 144.483 124.077 144.588 124.734 144.841C125.392 145.094 125.996 145.491 126.508 146.008C127.02 146.526 127.429 147.153 127.708 147.851C127.986 148.55 128.128 149.304 128.123 150.066Z" fill="white" stroke="#3F3D56"/>
<path d="M54.319 249.341L17.6264 259.929L15.2273 250.38L50.7011 234.941L54.319 249.341Z" fill="white" stroke="#3F3D56"/>
<path d="M8.47492 265.951L0 232.217L0.398131 232.102C3.64746 231.165 7.11119 231.649 10.0275 233.448C12.9437 235.248 15.0737 238.215 15.9488 241.697L21.1251 262.301L8.47492 265.951Z" fill="#3F3D56"/>
<path d="M89.67 225.189L67.2976 258.158L59.8703 252.37L78.4468 216.443L89.67 225.189Z" fill="white" stroke="#3F3D56"/>
<path d="M63.7332 269L37.3694 248.453L37.6119 248.095C39.5911 245.179 42.5703 243.224 45.8941 242.662C49.2179 242.099 52.6141 242.974 55.3357 245.095L55.3364 245.096L71.4385 257.645L63.7332 269Z" fill="#3F3D56"/>
<path d="M136.913 207.413L116.338 185.993C114.542 184.123 112.177 183.012 109.678 182.862C107.178 182.712 104.712 183.535 102.734 185.178L63.8849 231.431L67.3625 237.228L104.456 210.312L129.572 245.51L153.528 232.673L136.913 207.413Z" fill="black"/>
<path d="M101.543 215.398L101.75 214.297L100.641 215.319C99.8512 216.048 98.8768 216.496 97.8499 216.611C96.8232 216.726 95.7864 216.502 94.877 215.966C93.9671 215.43 93.226 214.605 92.7583 213.597C92.2904 212.589 92.1203 211.449 92.2728 210.331C92.4252 209.214 92.8921 208.177 93.606 207.359C94.3195 206.541 95.2446 205.981 96.2549 205.747C97.2647 205.514 98.3173 205.616 99.2735 206.042C100.23 206.469 101.049 207.201 101.615 208.147L101.72 208.323L101.918 208.375L112.831 211.21L112.873 211.221L112.916 211.224L127.77 212.449L138.536 225.976L135.655 228.377L107.735 218.13L101.543 215.398Z" fill="white" stroke="#3F3D56"/>
<path d="M164.347 256.691L155.846 262.488H145.8L99.0468 243.854L30.6553 257.105L28.7234 241.369L91.3192 211.968L146.187 231.43L164.347 256.691Z" fill="black"/>
<path d="M164.756 147.203C164.756 155.88 158.201 162.853 150.187 162.853C142.172 162.853 135.617 155.88 135.617 147.203C135.617 138.527 142.172 131.554 150.187 131.554C158.201 131.554 164.756 138.527 164.756 147.203Z" fill="white" stroke="#3F3D56"/>
<path d="M179.324 236.669L179.318 236.691L179.313 236.714L173.964 262.919L168.795 264.396L164.75 258.88L164.709 258.824L164.654 258.781L156.231 252.216L150.1 241.539L150.098 241.534L144.799 232.073L144.799 232.073L143.186 229.188L137.405 198.212L137.363 197.991L137.171 197.875L115.147 184.624L115.066 184.575L114.972 184.559L108.209 183.415L109.544 179.482L115.946 170.199L122.293 169.399L122.442 169.38L122.556 169.282L124.228 167.849L125.472 168.515L125.494 168.527L125.517 168.537L134.037 172.054L134.237 172.137L134.434 172.047L161.917 159.604L165.666 160.26L179.372 172.502C182.882 182.713 184.679 193.51 184.677 204.395C184.677 214.092 183.251 223.729 180.453 232.95L180.931 233.096L180.453 232.95L179.324 236.669Z" fill="white" stroke="#3F3D56"/>
<path opacity="0.1" d="M165.991 210.731L165.959 210.753L165.931 210.78L144.482 231.506L143.186 229.188L138.674 205.015H139.232H139.539L139.678 204.741L151.401 181.64L180.078 200.799L165.991 210.731Z" stroke="white"/>
<path d="M138.5 205.5L132.277 210.312L126.095 211.968L142.709 231.431" stroke="white"/>
<path d="M27.5891 73.319L26.7637 86.6016L39.1577 87.4861L39.9831 74.2035L27.5891 73.319Z" fill="#E6E6E6"/>
<path d="M19.5925 80.3721L34.6424 81.4462L33.6401 97.5751L18.5902 96.5009L19.5925 80.3721ZM33.9445 82.1007L20.2032 81.12L19.2881 95.8463L33.0293 96.8271L33.9445 82.1007Z" fill="#CCCCCC"/>
<path d="M97.6298 33.932L85.4855 36.7285L88.0949 49.7435L100.239 46.947L97.6298 33.932Z" fill="#E6E6E6"/>
<path d="M89.1059 27.6279L92.2745 43.4318L77.5279 46.8276L74.3593 31.0237L89.1059 27.6279ZM91.4956 42.8923L88.6025 28.4627L75.1382 31.5632L78.0313 45.9928L91.4956 42.8923Z" fill="#CCCCCC"/>
<path d="M84.869 96.4348L75.8033 105.535L84.2949 115.251L93.3606 106.15L84.869 96.4348Z" fill="#E6E6E6"/>
<path d="M94.0124 95.0734L83.0041 106.124L72.6929 94.3263L83.7012 83.2759L94.0124 95.0734ZM83.0344 105.13L93.0854 95.0409L83.6709 84.2693L73.6198 94.3588L83.0344 105.13Z" fill="#CCCCCC"/>
<path d="M186.175 0.5H553.692C556.231 0.500002 558.673 1.58044 560.479 3.51632C562.287 5.45338 563.308 8.08754 563.308 10.8408V230.296C563.308 233.049 562.287 235.683 560.479 237.62C558.673 239.556 556.231 240.637 553.692 240.637H186.175C184.917 240.637 183.67 240.371 182.506 239.854C181.342 239.338 180.282 238.579 179.387 237.62C178.493 236.661 177.781 235.521 177.295 234.264C176.809 233.007 176.559 231.658 176.559 230.296V10.8408C176.559 9.47824 176.809 8.1297 177.295 6.87248C177.781 5.6153 178.493 4.47515 179.387 3.51632C180.282 2.55755 181.342 1.79902 182.506 1.2822C183.671 0.765438 184.917 0.499998 186.175 0.5Z" stroke="#3F3D56"/>
<path d="M190.121 236.673V19.6587H549.746V236.673H190.121Z" fill="white" stroke="#3F3D56"/>
<path d="M369.625 13.2129C371.668 13.2129 373.324 11.4382 373.324 9.24904C373.324 7.05985 371.668 5.28516 369.625 5.28516C367.582 5.28516 365.926 7.05985 365.926 9.24904C365.926 11.4382 367.582 13.2129 369.625 13.2129Z" fill="white"/>
<path d="M190.121 20.2377L445.749 236.673H190.121V20.2377Z" fill="#F2F2F2" stroke="#3F3D56"/>
<path d="M246.048 220.859C265.193 220.859 280.712 204.226 280.712 183.709C280.712 163.192 265.193 146.56 246.048 146.56C226.903 146.56 211.384 163.192 211.384 183.709C211.384 204.226 226.903 220.859 246.048 220.859Z" fill="white"/>
<path d="M253.765 211.63C245.236 211.63 236.9 208.92 229.809 203.843C222.718 198.765 217.191 191.548 213.928 183.104C210.664 174.66 209.81 165.369 211.474 156.405C213.138 147.441 217.245 139.207 223.275 132.744C229.305 126.282 236.988 121.88 245.353 120.097C253.717 118.314 262.387 119.229 270.266 122.727C278.145 126.225 284.879 132.148 289.617 139.747C294.355 147.346 296.884 156.28 296.884 165.42C296.884 171.488 295.768 177.497 293.601 183.104C291.435 188.71 288.258 193.805 284.254 198.096C280.25 202.387 275.497 205.791 270.266 208.113C265.034 210.435 259.427 211.63 253.765 211.63ZM253.765 119.814C245.348 119.814 237.12 122.488 230.122 127.5C223.124 132.511 217.669 139.634 214.448 147.967C211.228 156.301 210.385 165.47 212.027 174.317C213.669 183.164 217.722 191.29 223.673 197.668C229.625 204.047 237.207 208.39 245.462 210.15C253.717 211.91 262.274 211.007 270.05 207.555C277.826 204.103 284.472 198.257 289.148 190.758C293.824 183.258 296.32 174.44 296.32 165.42C296.32 159.431 295.219 153.5 293.081 147.967C290.942 142.434 287.808 137.406 283.856 133.171C279.904 128.936 275.213 125.577 270.05 123.285C264.887 120.993 259.353 119.814 253.765 119.814Z" fill="#3F3D56"/>
<path d="M466.762 132.423H433.076V139.967H466.762V132.423Z" fill="#3F3D56"/>
<path d="M498.633 91.5557H401.206V94.7886H498.633V91.5557Z" fill="#3F3D56"/>
<path d="M498.633 104.257H401.206V107.49H498.633V104.257Z" fill="#3F3D56"/>
<path d="M498.633 116.959H401.206V120.192H498.633V116.959Z" fill="#3F3D56"/>
<path d="M524.731 32.2061H510.654V47.2932H524.731V32.2061Z" fill="white"/>
<path d="M531.268 54.2977H514.173V35.9775H531.268V54.2977ZM514.916 53.5012H530.524V36.7741H514.916L514.916 53.5012Z" fill="#CCCCCC"/>
<mask id="path-31-inside-1_223_1188" fill="white">
<path d="M573.933 233.209H538.739V230.491C538.739 230.421 538.726 230.351 538.7 230.285C538.675 230.22 538.638 230.161 538.591 230.11C538.545 230.06 538.489 230.021 538.428 229.994C538.367 229.967 538.302 229.953 538.236 229.953H526.169C526.103 229.953 526.038 229.967 525.977 229.994C525.916 230.021 525.86 230.06 525.814 230.11C525.767 230.16 525.73 230.22 525.705 230.285C525.679 230.351 525.666 230.421 525.666 230.491V233.209H518.125V230.491C518.125 230.421 518.112 230.351 518.086 230.285C518.061 230.22 518.024 230.16 517.977 230.11C517.931 230.06 517.875 230.021 517.814 229.994C517.753 229.967 517.688 229.953 517.622 229.953H505.555C505.489 229.953 505.424 229.967 505.363 229.994C505.302 230.021 505.246 230.06 505.2 230.11C505.153 230.161 505.116 230.22 505.091 230.285C505.065 230.351 505.052 230.421 505.052 230.491V233.209H497.511V230.491C497.511 230.421 497.498 230.351 497.472 230.285C497.447 230.22 497.41 230.161 497.363 230.11C497.317 230.06 497.261 230.021 497.2 229.994C497.139 229.967 497.074 229.953 497.008 229.953H484.941C484.875 229.953 484.81 229.967 484.749 229.994C484.688 230.021 484.632 230.06 484.586 230.11C484.539 230.16 484.502 230.22 484.477 230.285C484.451 230.351 484.438 230.421 484.438 230.491V233.209H476.897V230.491C476.897 230.421 476.884 230.351 476.858 230.285C476.833 230.22 476.796 230.16 476.749 230.11C476.703 230.06 476.647 230.021 476.586 229.994C476.525 229.967 476.46 229.953 476.394 229.953H464.327C464.261 229.953 464.196 229.967 464.135 229.994C464.074 230.021 464.018 230.06 463.972 230.11C463.925 230.16 463.888 230.22 463.863 230.285C463.837 230.351 463.824 230.421 463.824 230.491V233.209H456.283V230.491C456.283 230.421 456.27 230.351 456.244 230.285C456.219 230.22 456.182 230.16 456.135 230.11C456.089 230.06 456.033 230.021 455.972 229.994C455.911 229.967 455.846 229.953 455.78 229.953H443.713C443.647 229.953 443.582 229.967 443.521 229.994C443.46 230.021 443.404 230.06 443.358 230.11C443.311 230.161 443.274 230.22 443.249 230.285C443.223 230.351 443.21 230.421 443.21 230.491V233.209H435.669V230.491C435.669 230.421 435.656 230.351 435.63 230.285C435.605 230.22 435.568 230.161 435.521 230.11C435.475 230.06 435.419 230.021 435.358 229.994C435.297 229.967 435.232 229.953 435.166 229.953H423.099C423.033 229.953 422.968 229.967 422.907 229.994C422.846 230.021 422.79 230.06 422.744 230.11C422.697 230.16 422.66 230.22 422.635 230.285C422.609 230.351 422.596 230.421 422.596 230.491V233.209H415.055V230.491C415.055 230.421 415.042 230.351 415.016 230.285C414.991 230.22 414.954 230.16 414.907 230.11C414.861 230.06 414.805 230.021 414.744 229.994C414.683 229.967 414.618 229.953 414.552 229.953H320.029C319.963 229.953 319.898 229.967 319.837 229.994C319.776 230.021 319.72 230.06 319.674 230.11C319.627 230.161 319.59 230.22 319.565 230.285C319.539 230.351 319.526 230.421 319.526 230.491V233.209H311.985V230.491C311.985 230.421 311.972 230.351 311.946 230.285C311.921 230.22 311.884 230.161 311.837 230.11C311.791 230.06 311.735 230.021 311.674 229.994C311.613 229.967 311.548 229.953 311.482 229.953H299.415C299.349 229.953 299.284 229.967 299.223 229.994C299.162 230.021 299.106 230.06 299.06 230.11C299.013 230.16 298.976 230.22 298.951 230.285C298.925 230.351 298.912 230.421 298.912 230.491V233.209H291.371V230.491C291.371 230.421 291.358 230.351 291.332 230.285C291.307 230.22 291.27 230.161 291.223 230.11C291.177 230.06 291.121 230.021 291.06 229.994C290.999 229.967 290.934 229.953 290.868 229.953H278.801C278.735 229.953 278.67 229.967 278.609 229.994C278.548 230.021 278.492 230.06 278.446 230.11C278.399 230.161 278.362 230.22 278.337 230.285C278.311 230.351 278.298 230.421 278.298 230.491V233.209H270.757V230.491C270.757 230.421 270.744 230.351 270.718 230.285C270.693 230.22 270.656 230.161 270.609 230.11C270.563 230.06 270.507 230.021 270.446 229.994C270.385 229.967 270.32 229.953 270.254 229.953H258.187C258.121 229.953 258.056 229.967 257.995 229.994C257.934 230.021 257.878 230.06 257.832 230.11C257.785 230.16 257.748 230.22 257.723 230.285C257.697 230.351 257.684 230.421 257.684 230.491V233.209H250.143V230.491C250.143 230.421 250.13 230.351 250.104 230.285C250.079 230.22 250.042 230.161 249.995 230.11C249.949 230.06 249.893 230.021 249.832 229.994C249.771 229.967 249.706 229.953 249.64 229.953H237.573C237.507 229.953 237.442 229.967 237.381 229.994C237.32 230.021 237.264 230.06 237.218 230.11C237.171 230.16 237.134 230.22 237.109 230.285C237.083 230.351 237.07 230.421 237.07 230.491V233.209H229.529V230.491C229.529 230.421 229.516 230.351 229.49 230.285C229.465 230.22 229.428 230.16 229.381 230.11C229.335 230.06 229.279 230.021 229.218 229.994C229.157 229.967 229.092 229.953 229.026 229.953H216.959C216.826 229.953 216.698 230.009 216.604 230.11C216.509 230.211 216.456 230.349 216.456 230.491V233.209H208.915V230.491C208.915 230.421 208.902 230.351 208.876 230.285C208.851 230.22 208.814 230.161 208.767 230.11C208.721 230.06 208.665 230.021 208.604 229.994C208.543 229.967 208.478 229.953 208.412 229.953H196.345C196.212 229.953 196.084 230.009 195.99 230.11C195.895 230.212 195.842 230.349 195.842 230.491V233.209H172.714C169.514 233.209 166.445 234.571 164.182 236.997C161.919 239.422 160.648 242.711 160.648 246.141V251.988C160.648 255.418 161.919 258.707 164.182 261.133C166.445 263.558 169.514 264.92 172.714 264.92H573.933C577.134 264.92 580.203 263.558 582.466 261.133C584.729 258.707 586 255.418 586 251.988V246.141C586 244.443 585.688 242.761 585.081 241.192C584.475 239.623 583.586 238.198 582.466 236.997C581.345 235.796 580.015 234.843 578.551 234.193C577.087 233.544 575.518 233.209 573.933 233.209Z"/>
</mask>
<path d="M573.933 233.209H538.739V230.491C538.739 230.421 538.726 230.351 538.7 230.285C538.675 230.22 538.638 230.161 538.591 230.11C538.545 230.06 538.489 230.021 538.428 229.994C538.367 229.967 538.302 229.953 538.236 229.953H526.169C526.103 229.953 526.038 229.967 525.977 229.994C525.916 230.021 525.86 230.06 525.814 230.11C525.767 230.16 525.73 230.22 525.705 230.285C525.679 230.351 525.666 230.421 525.666 230.491V233.209H518.125V230.491C518.125 230.421 518.112 230.351 518.086 230.285C518.061 230.22 518.024 230.16 517.977 230.11C517.931 230.06 517.875 230.021 517.814 229.994C517.753 229.967 517.688 229.953 517.622 229.953H505.555C505.489 229.953 505.424 229.967 505.363 229.994C505.302 230.021 505.246 230.06 505.2 230.11C505.153 230.161 505.116 230.22 505.091 230.285C505.065 230.351 505.052 230.421 505.052 230.491V233.209H497.511V230.491C497.511 230.421 497.498 230.351 497.472 230.285C497.447 230.22 497.41 230.161 497.363 230.11C497.317 230.06 497.261 230.021 497.2 229.994C497.139 229.967 497.074 229.953 497.008 229.953H484.941C484.875 229.953 484.81 229.967 484.749 229.994C484.688 230.021 484.632 230.06 484.586 230.11C484.539 230.16 484.502 230.22 484.477 230.285C484.451 230.351 484.438 230.421 484.438 230.491V233.209H476.897V230.491C476.897 230.421 476.884 230.351 476.858 230.285C476.833 230.22 476.796 230.16 476.749 230.11C476.703 230.06 476.647 230.021 476.586 229.994C476.525 229.967 476.46 229.953 476.394 229.953H464.327C464.261 229.953 464.196 229.967 464.135 229.994C464.074 230.021 464.018 230.06 463.972 230.11C463.925 230.16 463.888 230.22 463.863 230.285C463.837 230.351 463.824 230.421 463.824 230.491V233.209H456.283V230.491C456.283 230.421 456.27 230.351 456.244 230.285C456.219 230.22 456.182 230.16 456.135 230.11C456.089 230.06 456.033 230.021 455.972 229.994C455.911 229.967 455.846 229.953 455.78 229.953H443.713C443.647 229.953 443.582 229.967 443.521 229.994C443.46 230.021 443.404 230.06 443.358 230.11C443.311 230.161 443.274 230.22 443.249 230.285C443.223 230.351 443.21 230.421 443.21 230.491V233.209H435.669V230.491C435.669 230.421 435.656 230.351 435.63 230.285C435.605 230.22 435.568 230.161 435.521 230.11C435.475 230.06 435.419 230.021 435.358 229.994C435.297 229.967 435.232 229.953 435.166 229.953H423.099C423.033 229.953 422.968 229.967 422.907 229.994C422.846 230.021 422.79 230.06 422.744 230.11C422.697 230.16 422.66 230.22 422.635 230.285C422.609 230.351 422.596 230.421 422.596 230.491V233.209H415.055V230.491C415.055 230.421 415.042 230.351 415.016 230.285C414.991 230.22 414.954 230.16 414.907 230.11C414.861 230.06 414.805 230.021 414.744 229.994C414.683 229.967 414.618 229.953 414.552 229.953H320.029C319.963 229.953 319.898 229.967 319.837 229.994C319.776 230.021 319.72 230.06 319.674 230.11C319.627 230.161 319.59 230.22 319.565 230.285C319.539 230.351 319.526 230.421 319.526 230.491V233.209H311.985V230.491C311.985 230.421 311.972 230.351 311.946 230.285C311.921 230.22 311.884 230.161 311.837 230.11C311.791 230.06 311.735 230.021 311.674 229.994C311.613 229.967 311.548 229.953 311.482 229.953H299.415C299.349 229.953 299.284 229.967 299.223 229.994C299.162 230.021 299.106 230.06 299.06 230.11C299.013 230.16 298.976 230.22 298.951 230.285C298.925 230.351 298.912 230.421 298.912 230.491V233.209H291.371V230.491C291.371 230.421 291.358 230.351 291.332 230.285C291.307 230.22 291.27 230.161 291.223 230.11C291.177 230.06 291.121 230.021 291.06 229.994C290.999 229.967 290.934 229.953 290.868 229.953H278.801C278.735 229.953 278.67 229.967 278.609 229.994C278.548 230.021 278.492 230.06 278.446 230.11C278.399 230.161 278.362 230.22 278.337 230.285C278.311 230.351 278.298 230.421 278.298 230.491V233.209H270.757V230.491C270.757 230.421 270.744 230.351 270.718 230.285C270.693 230.22 270.656 230.161 270.609 230.11C270.563 230.06 270.507 230.021 270.446 229.994C270.385 229.967 270.32 229.953 270.254 229.953H258.187C258.121 229.953 258.056 229.967 257.995 229.994C257.934 230.021 257.878 230.06 257.832 230.11C257.785 230.16 257.748 230.22 257.723 230.285C257.697 230.351 257.684 230.421 257.684 230.491V233.209H250.143V230.491C250.143 230.421 250.13 230.351 250.104 230.285C250.079 230.22 250.042 230.161 249.995 230.11C249.949 230.06 249.893 230.021 249.832 229.994C249.771 229.967 249.706 229.953 249.64 229.953H237.573C237.507 229.953 237.442 229.967 237.381 229.994C237.32 230.021 237.264 230.06 237.218 230.11C237.171 230.16 237.134 230.22 237.109 230.285C237.083 230.351 237.07 230.421 237.07 230.491V233.209H229.529V230.491C229.529 230.421 229.516 230.351 229.49 230.285C229.465 230.22 229.428 230.16 229.381 230.11C229.335 230.06 229.279 230.021 229.218 229.994C229.157 229.967 229.092 229.953 229.026 229.953H216.959C216.826 229.953 216.698 230.009 216.604 230.11C216.509 230.211 216.456 230.349 216.456 230.491V233.209H208.915V230.491C208.915 230.421 208.902 230.351 208.876 230.285C208.851 230.22 208.814 230.161 208.767 230.11C208.721 230.06 208.665 230.021 208.604 229.994C208.543 229.967 208.478 229.953 208.412 229.953H196.345C196.212 229.953 196.084 230.009 195.99 230.11C195.895 230.212 195.842 230.349 195.842 230.491V233.209H172.714C169.514 233.209 166.445 234.571 164.182 236.997C161.919 239.422 160.648 242.711 160.648 246.141V251.988C160.648 255.418 161.919 258.707 164.182 261.133C166.445 263.558 169.514 264.92 172.714 264.92H573.933C577.134 264.92 580.203 263.558 582.466 261.133C584.729 258.707 586 255.418 586 251.988V246.141C586 244.443 585.688 242.761 585.081 241.192C584.475 239.623 583.586 238.198 582.466 236.997C581.345 235.796 580.015 234.843 578.551 234.193C577.087 233.544 575.518 233.209 573.933 233.209Z" fill="white" stroke="#3F3D56" stroke-width="2" mask="url(#path-31-inside-1_223_1188)"/>
<path d="M140.848 146.139L140.738 146.2C140.468 145.964 140.127 145.622 139.76 145.209C139.222 144.604 138.661 143.881 138.235 143.194C137.793 142.482 137.55 141.892 137.538 141.526C137.442 138.412 138.14 136.206 139.738 133.712C140.182 133.017 140.295 132.169 140.39 131.454C140.393 131.431 140.396 131.409 140.399 131.386C140.503 130.604 140.599 129.977 140.92 129.501C141.447 128.718 141.868 127.99 142.146 127.173C142.425 126.351 142.551 125.464 142.523 124.366C142.515 124.078 142.489 123.315 142.464 122.582C142.518 122.671 142.572 122.763 142.626 122.855C143.219 123.861 143.838 124.974 143.943 125.18C144.235 125.749 144.332 126.066 144.431 126.388C144.435 126.404 144.44 126.42 144.445 126.435C144.559 126.807 144.684 127.187 145.052 127.848C145.077 127.893 145.139 128 145.254 128.078C145.32 128.123 145.427 128.174 145.564 128.172C145.708 128.169 145.822 128.11 145.897 128.046C146.022 127.941 146.067 127.805 146.081 127.762C146.102 127.697 146.115 127.629 146.124 127.571C146.158 127.346 146.166 126.997 146.161 126.598C146.152 125.78 146.087 124.607 146.007 123.417C145.926 122.224 145.827 121.003 145.749 120.084C145.747 120.06 145.745 120.036 145.743 120.012C146.066 120.352 146.434 120.737 146.794 121.106C147.287 121.612 147.773 122.097 148.105 122.397C148.188 122.472 148.266 122.54 148.335 122.595C148.395 122.642 148.479 122.706 148.565 122.747L148.567 122.748C148.596 122.762 148.72 122.822 148.878 122.803C148.984 122.79 149.116 122.74 149.216 122.617C149.309 122.503 149.328 122.382 149.331 122.313C149.337 122.19 149.298 122.091 149.285 122.06C149.266 122.012 149.242 121.966 149.22 121.925C148.609 120.829 148.43 120.152 148.389 119.78C148.368 119.596 148.381 119.49 148.391 119.445C148.392 119.438 148.393 119.433 148.394 119.429L148.414 119.395L148.433 119.321C148.462 119.202 148.549 118.633 148.656 117.912C148.747 117.303 148.857 116.552 148.969 115.787C148.994 115.618 149.019 115.448 149.044 115.279C149.088 114.98 149.132 114.683 149.174 114.395C149.226 114.6 149.28 114.801 149.334 114.99C149.457 115.418 149.596 115.833 149.743 116.096C149.931 116.434 150.029 116.756 150.136 117.122L150.146 117.157C150.248 117.507 150.365 117.905 150.592 118.314C150.643 118.404 150.691 118.491 150.737 118.575C151.056 119.152 151.297 119.589 151.689 120.033C151.688 120.061 151.688 120.085 151.688 120.107L151.757 120.108C151.781 120.134 151.805 120.161 151.831 120.187L151.91 120.111L152.688 120.125C152.692 119.908 152.704 119.47 152.727 119.062C152.739 118.857 152.753 118.665 152.769 118.515C152.777 118.439 152.786 118.38 152.793 118.337C152.796 118.321 152.799 118.31 152.8 118.304C153.184 117.454 153.498 116.704 153.593 115.655C153.672 114.796 153.888 113.824 154.101 112.959C154.261 112.307 154.338 111.694 154.397 111.093C154.415 110.907 154.431 110.725 154.448 110.543C154.485 110.127 154.521 109.713 154.58 109.27C154.613 109.018 154.611 108.676 154.603 108.353C154.6 108.248 154.597 108.145 154.594 108.043C154.677 108.195 154.76 108.35 154.842 108.507C154.935 108.683 155.028 108.865 155.122 109.048C155.31 109.416 155.501 109.79 155.697 110.141C156.108 110.878 156.373 111.704 156.618 112.581C156.67 112.767 156.721 112.955 156.773 113.146C156.96 113.838 157.155 114.555 157.411 115.224C157.737 116.073 158.047 116.845 158.514 117.683C158.623 117.878 158.714 118.047 158.78 118.169C158.822 118.246 158.854 118.305 158.873 118.338C158.887 118.363 158.906 118.397 158.928 118.428L158.928 118.428C158.936 118.439 158.962 118.478 159.003 118.517C159.02 118.533 159.073 118.582 159.155 118.618C159.249 118.658 159.443 118.701 159.633 118.572C159.788 118.468 159.83 118.319 159.84 118.277C159.854 118.22 159.855 118.174 159.856 118.154C159.856 118.111 159.851 118.075 159.849 118.062C159.844 118.03 159.836 117.997 159.832 117.975C159.829 117.961 159.826 117.947 159.822 117.932C159.775 117.72 159.685 117.316 159.722 116.866C159.764 116.373 159.841 115.893 159.926 115.407C159.947 115.293 159.967 115.177 159.988 115.061C160.055 114.69 160.124 114.311 160.177 113.934C160.298 113.085 160.352 112.198 160.171 111.235C160.847 112.107 161.627 113.32 161.816 113.66C162.541 114.96 162.993 116.217 163.47 117.543C163.679 118.124 163.894 118.719 164.137 119.336C164.207 119.513 164.321 119.702 164.515 119.823C164.726 119.956 164.954 119.959 165.142 119.906C165.315 119.857 165.464 119.76 165.579 119.667C165.699 119.571 165.813 119.456 165.918 119.338C166.127 119.103 166.331 118.821 166.504 118.574C166.567 118.484 166.624 118.4 166.676 118.324C166.777 118.178 166.859 118.058 166.928 117.968C166.996 117.879 167.053 117.767 167.099 117.671C167.148 117.568 167.199 117.448 167.25 117.325C167.305 117.19 167.368 117.031 167.429 116.874C167.475 116.757 167.52 116.641 167.562 116.537C167.563 116.534 167.565 116.53 167.566 116.527C168.829 118.989 169.893 122.657 170.559 126.384C171.293 130.492 171.526 134.57 171.053 137.079C171.016 137.273 170.982 137.455 170.95 137.625C170.492 140.046 170.439 140.326 170.308 143.103L170.308 143.103L170.305 143.161C170.26 144.122 170.194 145.489 169.927 146.735C169.794 147.357 169.614 147.928 169.374 148.392C169.134 148.857 168.849 149.184 168.52 149.368L168.298 149.492L168.267 149.744C167.983 152.074 166.443 153.788 164.707 154.962C162.964 156.14 161.109 156.714 160.37 156.797C160.324 156.803 160.234 156.798 160.081 156.621C159.921 156.437 159.753 156.13 159.584 155.693C159.248 154.825 158.968 153.61 158.694 152.295C158.632 151.994 158.569 151.687 158.507 151.38C158.301 150.367 158.093 149.346 157.864 148.466C157.714 147.89 157.551 147.357 157.366 146.913C157.186 146.481 156.964 146.077 156.67 145.812C156.198 145.387 155.721 145.011 155.272 144.657C155.059 144.489 154.852 144.325 154.654 144.164C154.027 143.651 153.445 143.12 152.904 142.409C152.528 141.916 151.966 141.61 151.368 141.426C150.767 141.241 150.089 141.165 149.424 141.161C148.107 141.153 146.73 141.427 145.95 141.808C145.645 141.957 145.336 142.136 145.047 142.304C144.912 142.383 144.781 142.459 144.657 142.528C144.236 142.762 144.012 143.024 143.839 143.271C143.794 143.336 143.756 143.393 143.722 143.444C143.624 143.59 143.558 143.69 143.434 143.804C143.12 144.091 142.831 144.399 142.563 144.683C142.425 144.829 142.293 144.97 142.166 145.098C141.777 145.493 141.378 145.843 140.848 146.139ZM145.112 118.612L144.75 118.949L145.112 118.612Z" fill="black" stroke="black"/>
<path d="M158.705 150.085C160.199 150.085 161.409 148.787 161.409 147.186C161.409 145.585 160.199 144.288 158.705 144.288C157.211 144.288 156 145.585 156 147.186C156 148.787 157.211 150.085 158.705 150.085Z" fill="white"/>
<path d="M138.741 205.065C138.94 204.171 140.957 203.517 141.595 203.042C143.636 201.524 145.508 199.827 147.636 198.415C149.933 196.891 152.029 195.067 154.287 193.482C155.294 192.775 156.324 191.972 157.197 191.099" stroke="#3F3D56"/>
<path d="M143.979 231.004C145.253 229.184 147.858 227.745 149.659 226.514C153.437 223.932 157.906 222.311 162.019 220.335C164.813 218.992 167.067 217.653 169.39 215.624C169.958 215.128 170.763 214.894 171.164 214.293" stroke="#3F3D56"/>
</g>
<defs>
<clipPath id="clip0_223_1188">
<rect width="586" height="269" fill="white"/>
</clipPath>
</defs>
</svg>
