<svg width="610" height="285" viewBox="0 0 610 285" fill="none" xmlns="http://www.w3.org/2000/svg">
<path d="M110.572 0.5H493.142C495.787 0.500002 498.334 1.64587 500.219 3.70196C502.105 5.7595 503.172 8.55873 503.172 11.4856V243.994C503.172 246.921 502.105 249.72 500.219 251.777C498.334 253.833 495.787 254.979 493.142 254.979H110.572C109.262 254.979 107.962 254.698 106.749 254.149C105.535 253.601 104.429 252.796 103.495 251.777C102.562 250.759 101.819 249.548 101.311 248.212C100.804 246.875 100.542 245.442 100.542 243.994V11.4856C100.542 10.0372 100.804 8.6039 101.311 7.26778C101.819 5.9317 102.562 4.72036 103.495 3.70195C104.429 2.68362 105.535 1.8784 106.749 1.32994C107.962 0.781548 109.262 0.499998 110.572 0.5Z" stroke="#3F3D56"/>
<path d="M114.66 20.7983H489.055V250.78H114.66V20.7983Z" fill="white" stroke="#3F3D56"/>
<path d="M301.536 13.9989C303.663 13.9989 305.386 12.1187 305.386 9.79926C305.386 7.47986 303.663 5.59961 301.536 5.59961C299.41 5.59961 297.686 7.47986 297.686 9.79926C297.686 12.1187 299.41 13.9989 301.536 13.9989Z" fill="white"/>
<path d="M114.66 21.3897L380.852 250.78H114.66V21.3897Z" fill="#F2F2F2" stroke="#3F3D56"/>
<path d="M172.898 233.995C192.827 233.995 208.982 216.374 208.982 194.636C208.982 172.899 192.827 155.277 172.898 155.277C152.969 155.277 136.814 172.899 136.814 194.636C136.814 216.374 152.969 233.995 172.898 233.995Z" fill="white"/>
<path d="M180.93 224.218C172.053 224.218 163.375 221.347 155.994 215.967C148.612 210.588 142.859 202.941 139.462 193.995C136.065 185.049 135.176 175.205 136.908 165.708C138.64 156.211 142.915 147.487 149.192 140.64C155.469 133.793 163.467 129.13 172.174 127.241C180.881 125.352 189.906 126.322 198.107 130.027C206.309 133.733 213.319 140.008 218.251 148.059C223.183 156.11 225.816 165.576 225.816 175.259C225.816 181.689 224.655 188.055 222.399 193.995C220.143 199.935 216.837 205.332 212.669 209.879C208.501 214.425 203.553 218.031 198.107 220.492C192.662 222.952 186.825 224.218 180.93 224.218ZM180.93 126.94C172.169 126.94 163.604 129.774 156.32 135.083C149.035 140.393 143.357 147.939 140.004 156.768C136.651 165.598 135.774 175.313 137.483 184.686C139.193 194.059 143.412 202.668 149.607 209.426C155.802 216.184 163.695 220.786 172.288 222.65C180.881 224.514 189.788 223.557 197.883 219.9C205.977 216.243 212.896 210.05 217.763 202.104C222.631 194.158 225.229 184.816 225.229 175.259C225.229 168.914 224.083 162.631 221.857 156.768C219.631 150.906 216.368 145.579 212.254 141.093C208.141 136.606 203.257 133.047 197.883 130.618C192.508 128.19 186.748 126.94 180.93 126.94Z" fill="#3F3D56"/>
<path d="M402.652 140.3H367.586V148.292H402.652V140.3Z" fill="#3F3D56"/>
<path d="M435.828 97.0015H334.41V100.427H435.828V97.0015Z" fill="#3F3D56"/>
<path d="M435.828 110.458H334.41V113.884H435.828V110.458Z" fill="#3F3D56"/>
<path d="M435.828 123.916H334.41V127.341H435.828V123.916Z" fill="#3F3D56"/>
<path d="M462.995 34.1216H448.341V50.1061H462.995V34.1216Z" fill="white"/>
<path d="M469.799 57.5275H452.004V38.1177H469.799V57.5275ZM452.778 56.6836H469.025V38.9616H452.778L452.778 56.6836Z" fill="#CCCCCC"/>
<mask id="path-13-inside-1_516_617" fill="white">
<path d="M514.212 247.08H477.576V244.201C477.576 244.126 477.562 244.052 477.536 243.982C477.51 243.913 477.471 243.85 477.423 243.797C477.374 243.744 477.316 243.702 477.253 243.673C477.189 243.645 477.121 243.63 477.053 243.63H464.492C464.423 243.63 464.355 243.645 464.291 243.673C464.228 243.702 464.17 243.744 464.121 243.797C464.073 243.85 464.034 243.913 464.008 243.982C463.982 244.052 463.968 244.126 463.968 244.201V247.08H456.118V244.201C456.118 244.126 456.104 244.052 456.078 243.982C456.052 243.913 456.013 243.85 455.964 243.797C455.916 243.744 455.858 243.702 455.795 243.673C455.731 243.645 455.663 243.63 455.594 243.63H443.033C442.965 243.63 442.897 243.645 442.833 243.673C442.77 243.702 442.712 243.744 442.663 243.797C442.615 243.85 442.576 243.913 442.55 243.982C442.524 244.052 442.51 244.126 442.51 244.201V247.08H434.659V244.201C434.659 244.126 434.646 244.052 434.62 243.982C434.593 243.913 434.555 243.85 434.506 243.797C434.458 243.744 434.4 243.702 434.336 243.673C434.273 243.645 434.205 243.63 434.136 243.63H421.575C421.506 243.63 421.438 243.645 421.375 243.673C421.311 243.702 421.254 243.744 421.205 243.797C421.156 243.85 421.118 243.913 421.092 243.982C421.065 244.052 421.052 244.126 421.052 244.201V247.08H413.201V244.201C413.201 244.126 413.188 244.052 413.161 243.982C413.135 243.913 413.096 243.85 413.048 243.797C412.999 243.744 412.942 243.702 412.878 243.673C412.815 243.645 412.747 243.63 412.678 243.63H400.117C400.048 243.63 399.98 243.645 399.917 243.673C399.853 243.702 399.795 243.744 399.747 243.797C399.698 243.85 399.66 243.913 399.633 243.982C399.607 244.052 399.594 244.126 399.594 244.201V247.08H391.743V244.201C391.743 244.126 391.729 244.052 391.703 243.982C391.677 243.913 391.638 243.85 391.59 243.797C391.541 243.744 391.483 243.702 391.42 243.673C391.356 243.645 391.288 243.63 391.22 243.63H378.659C378.59 243.63 378.522 243.645 378.458 243.673C378.395 243.702 378.337 243.744 378.289 243.797C378.24 243.85 378.201 243.913 378.175 243.982C378.149 244.052 378.135 244.126 378.135 244.201V247.08H370.285V244.201C370.285 244.126 370.271 244.052 370.245 243.982C370.219 243.913 370.18 243.85 370.131 243.797C370.083 243.744 370.025 243.702 369.962 243.673C369.898 243.645 369.83 243.63 369.761 243.63H357.2C357.132 243.63 357.064 243.645 357 243.673C356.937 243.702 356.879 243.744 356.83 243.797C356.782 243.85 356.743 243.913 356.717 243.982C356.69 244.052 356.677 244.126 356.677 244.201V247.08H348.826V244.201C348.826 244.126 348.813 244.052 348.787 243.982C348.76 243.913 348.722 243.85 348.673 243.797C348.624 243.744 348.567 243.702 348.503 243.673C348.44 243.645 348.372 243.63 348.303 243.63H249.909C249.84 243.63 249.772 243.645 249.709 243.673C249.645 243.702 249.588 243.744 249.539 243.797C249.49 243.85 249.452 243.913 249.425 243.982C249.399 244.052 249.386 244.126 249.386 244.201V247.08H241.535V244.201C241.535 244.126 241.522 244.052 241.495 243.982C241.469 243.913 241.43 243.85 241.382 243.797C241.333 243.744 241.275 243.702 241.212 243.673C241.148 243.645 241.08 243.63 241.012 243.63H228.451C228.382 243.63 228.314 243.645 228.25 243.673C228.187 243.702 228.129 243.744 228.081 243.797C228.032 243.85 227.994 243.913 227.967 243.982C227.941 244.052 227.927 244.126 227.927 244.201V247.08H220.077V244.201C220.077 244.126 220.063 244.052 220.037 243.982C220.011 243.913 219.972 243.85 219.924 243.797C219.875 243.744 219.817 243.702 219.754 243.673C219.69 243.645 219.622 243.63 219.553 243.63H206.992C206.924 243.63 206.856 243.645 206.792 243.673C206.729 243.702 206.671 243.744 206.622 243.797C206.574 243.85 206.535 243.913 206.509 243.982C206.483 244.052 206.469 244.126 206.469 244.201V247.08H198.619V244.201C198.619 244.126 198.605 244.052 198.579 243.982C198.552 243.913 198.514 243.85 198.465 243.797C198.417 243.744 198.359 243.702 198.295 243.673C198.232 243.645 198.164 243.63 198.095 243.63H185.534C185.466 243.63 185.397 243.645 185.334 243.673C185.27 243.702 185.213 243.744 185.164 243.797C185.116 243.85 185.077 243.913 185.051 243.982C185.024 244.052 185.011 244.126 185.011 244.201V247.08H177.16V244.201C177.16 244.126 177.147 244.052 177.12 243.982C177.094 243.913 177.056 243.85 177.007 243.797C176.958 243.744 176.901 243.702 176.837 243.673C176.774 243.645 176.706 243.63 176.637 243.63H164.076C164.007 243.63 163.939 243.645 163.876 243.673C163.812 243.702 163.754 243.744 163.706 243.797C163.657 243.85 163.619 243.913 163.592 243.982C163.566 244.052 163.553 244.126 163.553 244.201V247.08H155.702V244.201C155.702 244.126 155.688 244.052 155.662 243.982C155.636 243.913 155.597 243.85 155.549 243.797C155.5 243.744 155.442 243.702 155.379 243.673C155.315 243.645 155.247 243.63 155.179 243.63H142.618C142.479 243.63 142.346 243.69 142.248 243.797C142.149 243.904 142.094 244.049 142.094 244.201V247.08H134.244V244.201C134.244 244.126 134.23 244.052 134.204 243.982C134.178 243.913 134.139 243.85 134.09 243.797C134.042 243.744 133.984 243.702 133.921 243.673C133.857 243.645 133.789 243.63 133.72 243.63H121.159C121.021 243.63 120.888 243.69 120.789 243.797C120.691 243.904 120.636 244.049 120.636 244.201V247.08H96.5609C93.2295 247.08 90.0346 248.523 87.679 251.093C85.3234 253.662 84 257.147 84 260.781V266.976C84 270.61 85.3234 274.095 87.679 276.664C90.0346 279.234 93.2295 280.677 96.5609 280.677H514.212C517.543 280.677 520.738 279.234 523.094 276.664C525.45 274.095 526.773 270.61 526.773 266.976V260.781C526.773 258.982 526.448 257.2 525.817 255.538C525.186 253.876 524.26 252.365 523.094 251.093C521.928 249.821 520.543 248.811 519.019 248.123C517.495 247.434 515.861 247.08 514.212 247.08Z"/>
</mask>
<path d="M514.212 247.08H477.576V244.201C477.576 244.126 477.562 244.052 477.536 243.982C477.51 243.913 477.471 243.85 477.423 243.797C477.374 243.744 477.316 243.702 477.253 243.673C477.189 243.645 477.121 243.63 477.053 243.63H464.492C464.423 243.63 464.355 243.645 464.291 243.673C464.228 243.702 464.17 243.744 464.121 243.797C464.073 243.85 464.034 243.913 464.008 243.982C463.982 244.052 463.968 244.126 463.968 244.201V247.08H456.118V244.201C456.118 244.126 456.104 244.052 456.078 243.982C456.052 243.913 456.013 243.85 455.964 243.797C455.916 243.744 455.858 243.702 455.795 243.673C455.731 243.645 455.663 243.63 455.594 243.63H443.033C442.965 243.63 442.897 243.645 442.833 243.673C442.77 243.702 442.712 243.744 442.663 243.797C442.615 243.85 442.576 243.913 442.55 243.982C442.524 244.052 442.51 244.126 442.51 244.201V247.08H434.659V244.201C434.659 244.126 434.646 244.052 434.62 243.982C434.593 243.913 434.555 243.85 434.506 243.797C434.458 243.744 434.4 243.702 434.336 243.673C434.273 243.645 434.205 243.63 434.136 243.63H421.575C421.506 243.63 421.438 243.645 421.375 243.673C421.311 243.702 421.254 243.744 421.205 243.797C421.156 243.85 421.118 243.913 421.092 243.982C421.065 244.052 421.052 244.126 421.052 244.201V247.08H413.201V244.201C413.201 244.126 413.188 244.052 413.161 243.982C413.135 243.913 413.096 243.85 413.048 243.797C412.999 243.744 412.942 243.702 412.878 243.673C412.815 243.645 412.747 243.63 412.678 243.63H400.117C400.048 243.63 399.98 243.645 399.917 243.673C399.853 243.702 399.795 243.744 399.747 243.797C399.698 243.85 399.66 243.913 399.633 243.982C399.607 244.052 399.594 244.126 399.594 244.201V247.08H391.743V244.201C391.743 244.126 391.729 244.052 391.703 243.982C391.677 243.913 391.638 243.85 391.59 243.797C391.541 243.744 391.483 243.702 391.42 243.673C391.356 243.645 391.288 243.63 391.22 243.63H378.659C378.59 243.63 378.522 243.645 378.458 243.673C378.395 243.702 378.337 243.744 378.289 243.797C378.24 243.85 378.201 243.913 378.175 243.982C378.149 244.052 378.135 244.126 378.135 244.201V247.08H370.285V244.201C370.285 244.126 370.271 244.052 370.245 243.982C370.219 243.913 370.18 243.85 370.131 243.797C370.083 243.744 370.025 243.702 369.962 243.673C369.898 243.645 369.83 243.63 369.761 243.63H357.2C357.132 243.63 357.064 243.645 357 243.673C356.937 243.702 356.879 243.744 356.83 243.797C356.782 243.85 356.743 243.913 356.717 243.982C356.69 244.052 356.677 244.126 356.677 244.201V247.08H348.826V244.201C348.826 244.126 348.813 244.052 348.787 243.982C348.76 243.913 348.722 243.85 348.673 243.797C348.624 243.744 348.567 243.702 348.503 243.673C348.44 243.645 348.372 243.63 348.303 243.63H249.909C249.84 243.63 249.772 243.645 249.709 243.673C249.645 243.702 249.588 243.744 249.539 243.797C249.49 243.85 249.452 243.913 249.425 243.982C249.399 244.052 249.386 244.126 249.386 244.201V247.08H241.535V244.201C241.535 244.126 241.522 244.052 241.495 243.982C241.469 243.913 241.43 243.85 241.382 243.797C241.333 243.744 241.275 243.702 241.212 243.673C241.148 243.645 241.08 243.63 241.012 243.63H228.451C228.382 243.63 228.314 243.645 228.25 243.673C228.187 243.702 228.129 243.744 228.081 243.797C228.032 243.85 227.994 243.913 227.967 243.982C227.941 244.052 227.927 244.126 227.927 244.201V247.08H220.077V244.201C220.077 244.126 220.063 244.052 220.037 243.982C220.011 243.913 219.972 243.85 219.924 243.797C219.875 243.744 219.817 243.702 219.754 243.673C219.69 243.645 219.622 243.63 219.553 243.63H206.992C206.924 243.63 206.856 243.645 206.792 243.673C206.729 243.702 206.671 243.744 206.622 243.797C206.574 243.85 206.535 243.913 206.509 243.982C206.483 244.052 206.469 244.126 206.469 244.201V247.08H198.619V244.201C198.619 244.126 198.605 244.052 198.579 243.982C198.552 243.913 198.514 243.85 198.465 243.797C198.417 243.744 198.359 243.702 198.295 243.673C198.232 243.645 198.164 243.63 198.095 243.63H185.534C185.466 243.63 185.397 243.645 185.334 243.673C185.27 243.702 185.213 243.744 185.164 243.797C185.116 243.85 185.077 243.913 185.051 243.982C185.024 244.052 185.011 244.126 185.011 244.201V247.08H177.16V244.201C177.16 244.126 177.147 244.052 177.12 243.982C177.094 243.913 177.056 243.85 177.007 243.797C176.958 243.744 176.901 243.702 176.837 243.673C176.774 243.645 176.706 243.63 176.637 243.63H164.076C164.007 243.63 163.939 243.645 163.876 243.673C163.812 243.702 163.754 243.744 163.706 243.797C163.657 243.85 163.619 243.913 163.592 243.982C163.566 244.052 163.553 244.126 163.553 244.201V247.08H155.702V244.201C155.702 244.126 155.688 244.052 155.662 243.982C155.636 243.913 155.597 243.85 155.549 243.797C155.5 243.744 155.442 243.702 155.379 243.673C155.315 243.645 155.247 243.63 155.179 243.63H142.618C142.479 243.63 142.346 243.69 142.248 243.797C142.149 243.904 142.094 244.049 142.094 244.201V247.08H134.244V244.201C134.244 244.126 134.23 244.052 134.204 243.982C134.178 243.913 134.139 243.85 134.09 243.797C134.042 243.744 133.984 243.702 133.921 243.673C133.857 243.645 133.789 243.63 133.72 243.63H121.159C121.021 243.63 120.888 243.69 120.789 243.797C120.691 243.904 120.636 244.049 120.636 244.201V247.08H96.5609C93.2295 247.08 90.0346 248.523 87.679 251.093C85.3234 253.662 84 257.147 84 260.781V266.976C84 270.61 85.3234 274.095 87.679 276.664C90.0346 279.234 93.2295 280.677 96.5609 280.677H514.212C517.543 280.677 520.738 279.234 523.094 276.664C525.45 274.095 526.773 270.61 526.773 266.976V260.781C526.773 258.982 526.448 257.2 525.817 255.538C525.186 253.876 524.26 252.365 523.094 251.093C521.928 249.821 520.543 248.811 519.019 248.123C517.495 247.434 515.861 247.08 514.212 247.08Z" fill="white" stroke="#3F3D56" stroke-width="2" mask="url(#path-13-inside-1_516_617)"/>
</svg>
