<svg width="33" height="30" viewBox="0 0 33 30" fill="none" xmlns="http://www.w3.org/2000/svg">
<mask id="mask0_517_8427" style="mask-type:alpha" maskUnits="userSpaceOnUse" x="0" y="0" width="33" height="30">
<path d="M31.75 15C31.75 22.9747 24.7891 29.5 16.125 29.5C7.46088 29.5 0.5 22.9747 0.5 15C0.5 7.02531 7.46088 0.5 16.125 0.5C24.7891 0.5 31.75 7.02531 31.75 15Z" fill="#D9D9D9" stroke="black"/>
</mask>
<g mask="url(#mask0_517_8427)">
<path d="M74.7103 69.2404C74.6759 69.1549 74.6771 69.0863 74.6263 69.0059C74.5873 68.9443 74.5388 68.8859 74.4941 68.8286C74.3837 68.6878 74.2722 68.5498 74.1699 68.4023C73.9835 68.1337 73.8162 67.8561 73.6133 67.5996C73.2398 67.1274 72.843 66.6921 72.3713 66.3204C71.6971 65.7894 70.9313 65.3949 70.13 65.107C69.7958 64.9482 69.4559 64.8023 69.1064 64.6823C68.4418 64.4545 67.7631 64.3019 67.0722 64.218C67.194 64.1772 67.3174 64.142 67.4446 64.1192C67.6191 64.0878 67.5832 63.8388 67.4236 63.8153C66.8808 63.7353 66.3411 63.6506 65.7965 63.5941C65.8114 63.4557 65.6586 63.3529 65.5325 63.3671C64.6881 63.462 63.8386 63.5231 62.9911 63.5941C59.9233 63.6972 56.8578 63.869 53.7977 64.1172C52.1779 64.2486 50.5622 64.4216 48.9458 64.5914C48.1495 64.6749 47.3531 64.7847 46.5533 64.8239C45.7555 64.8631 44.9518 64.8486 44.1547 64.7937C43.2766 64.7333 42.4157 64.5514 41.5709 64.3031C41.1473 64.1788 40.7283 64.0388 40.3108 63.8953C40.1302 63.8333 39.9499 63.7694 39.77 63.7051C39.7704 63.7043 39.7704 63.7039 39.7708 63.7031C39.9411 63.227 40.1057 62.7439 40.2146 62.2486C40.3196 61.7702 40.4159 61.2882 40.467 60.8C40.4797 60.6812 40.4896 60.5619 40.4968 60.4423C40.5102 60.491 40.5232 60.54 40.5335 60.5898C40.5771 60.8063 40.8685 60.7678 40.8963 60.5631C41.1171 58.9419 40.697 57.307 40.3655 55.7341C40.0213 54.1015 39.7666 52.4412 39.513 50.7917C39.3858 49.9639 39.2624 49.1353 39.1497 48.3051C39.0405 47.5008 38.9236 46.7012 38.7376 45.9114C38.411 44.5266 37.9168 43.1886 37.3496 41.8906C37.0372 41.1757 36.6675 40.4929 36.2469 39.8388C36.0357 39.5098 35.8119 39.1878 35.5682 38.8831C35.7351 38.9572 35.9261 38.7419 35.8386 38.569C35.645 38.1859 35.4078 37.8216 35.1825 37.4576C34.9563 37.0929 34.7241 36.7314 34.4774 36.3808C33.995 35.6945 33.4649 35.0466 32.8709 34.4588C32.2613 33.8557 31.6017 33.3074 30.9291 32.78C30.2783 32.2694 29.6255 31.7592 28.9602 31.2682C28.5844 30.991 28.1978 30.7188 27.7846 30.5031C27.4909 30.3494 27.141 30.1572 26.7946 30.1149C26.7598 29.7659 26.7094 29.4188 26.6785 29.0694C26.6426 28.6635 26.6865 28.2784 26.73 27.8761C26.7743 27.4674 26.7174 27.071 26.6009 26.68C26.5432 26.4859 26.4608 26.3023 26.4008 26.109C26.3389 25.9094 26.316 25.698 26.2977 25.4898C26.2789 25.2765 26.2763 25.0647 26.2854 24.8506C26.2946 24.6263 26.3401 24.411 26.3618 24.1882C26.4008 23.7894 26.3756 23.4 26.5219 23.0223C26.5792 22.8745 26.633 22.7129 26.6193 22.5513C26.6059 22.3929 26.5314 22.2659 26.4585 22.1298C26.3855 21.9937 26.3232 21.9004 26.387 21.7486C26.4726 21.5439 26.5608 21.3698 26.596 21.1459C26.6532 20.7843 26.6212 20.3851 26.4699 20.049C26.5589 19.9266 26.6479 19.8039 26.7411 19.6839C26.8809 19.5035 26.9668 19.3086 26.9684 19.0749C26.9703 18.8368 26.9397 18.5949 26.9218 18.358C26.9027 18.1059 26.8839 17.8537 26.8648 17.6016C26.8568 17.4953 26.8511 17.3521 26.8186 17.2251C26.9875 17.0031 27.1288 16.76 27.2281 16.4964C27.4263 15.9702 27.5291 15.389 27.6471 14.8392C27.7322 14.4415 27.8442 13.8992 27.7189 13.4706C27.7193 13.4694 27.72 13.4686 27.7204 13.4674C28.2085 12.2913 28.4999 11.0102 28.4556 9.72664C28.4339 9.09409 28.3414 8.4635 28.1467 7.86193C27.9729 7.32585 27.7345 6.57448 27.0615 6.59331C26.7399 6.60233 26.4501 6.75449 26.1663 6.89488C25.871 7.04076 25.5766 7.18821 25.2844 7.33997C24.6912 7.64821 24.1068 7.97605 23.5507 8.35095C22.9797 8.73566 22.4278 9.16272 21.9496 9.66585C21.7242 9.90272 21.4974 10.16 21.2995 10.4372C21.2529 10.3831 21.2021 10.338 21.1437 10.3149C20.7614 10.1647 20.4753 10.6486 20.2675 10.8851C20.0074 11.1808 19.5231 11.0788 19.1778 11.0572C18.9838 11.0451 18.7932 11.0262 18.6068 10.9662C18.4479 10.9153 18.2841 10.8337 18.1183 10.7996C17.8678 10.4815 17.432 10.2674 17.0363 10.4015C16.9515 10.4302 17.0324 10.4239 16.9725 10.3898C16.9247 10.3623 16.8934 10.3302 16.8396 10.3086C16.738 10.2686 16.6299 10.2725 16.5271 10.3019C16.411 10.3345 16.3167 10.3976 16.2181 10.4659C16.1754 10.4957 16.1326 10.5255 16.0852 10.5478C16.0676 10.556 16.0333 10.5631 16.0233 10.5741C16.0016 10.5313 15.9657 10.4455 15.9584 10.4345C15.9279 10.391 15.8965 10.3529 15.8538 10.3204C15.7571 10.247 15.6387 10.2176 15.5199 10.2353C15.4046 10.2525 15.3122 10.3164 15.2064 10.3592C15.1491 10.3827 15.0967 10.3859 15.0433 10.3866C14.9493 10.2898 14.8577 10.1902 14.7759 10.0823C14.6785 9.9537 14.5945 9.81762 14.5193 9.67448C14.4318 9.50821 14.3451 9.34664 14.1973 9.22781C14.0739 9.1286 13.9223 9.0839 13.789 9.00272C13.7118 8.95606 13.6591 8.88742 13.6117 8.81409C13.365 8.20076 13.0064 7.63605 12.6473 7.08703C12.1699 6.35762 11.6558 5.65409 11.102 4.98389C10.8327 4.65801 10.5547 4.33959 10.2678 4.02978C10.0089 3.74978 9.73882 3.45879 9.40653 3.26977C9.04483 3.06389 8.63883 2.99213 8.24466 3.14311C8.16407 3.17409 8.0873 3.21605 8.01817 3.26624C7.94178 3.26664 7.86234 3.29762 7.81574 3.35762C7.69581 3.51173 7.65876 3.70586 7.60299 3.89096C7.54341 4.0886 7.48688 4.28703 7.42959 4.48507L7.1057 5.60861C6.89258 6.34743 6.60268 7.10899 6.54959 7.88311C6.52362 8.2588 6.57174 8.63449 6.6065 9.00782C6.64278 9.39684 6.63437 9.78232 6.59924 10.1709C6.53049 10.9317 6.41514 11.6788 6.49878 12.4439C6.50604 12.5094 6.51636 12.5741 6.52591 12.6388C6.49191 12.7306 6.47817 12.8419 6.46709 12.9047C6.42928 13.1184 6.41476 13.3388 6.38803 13.5545C6.33723 13.9631 6.26694 14.3729 6.05267 14.7294C5.94649 14.9059 5.79143 15.0482 5.69327 15.229C5.57028 15.4553 5.55997 15.6964 5.68906 15.9231C5.69747 15.938 5.70549 15.9533 5.71389 15.9678C5.70052 16.0094 5.68716 16.0506 5.67685 16.0933C5.65164 16.1996 5.6375 16.3078 5.61038 16.4137C5.55577 16.6262 5.49045 16.8376 5.42285 17.0463C5.28573 17.467 5.13104 17.8808 5.00959 18.3066C4.76323 19.1686 4.59671 20.0572 4.51268 20.9514C4.34462 22.74 4.54246 24.5208 4.97788 26.2561C5.05465 26.5615 5.1383 26.8651 5.22691 27.167C5.13868 27.6776 5.03709 28.1913 4.8992 28.6902C4.75445 29.2141 4.56997 29.7259 4.4023 30.2427C4.06771 31.2745 3.76521 32.3082 3.63306 33.3913C3.50014 34.4819 3.54025 35.5753 3.72435 36.6565C3.81792 37.2059 3.93441 37.7514 4.02035 38.3023C4.10323 38.8349 4.22011 39.3659 4.27702 39.9027C4.41108 41.1639 4.38893 42.438 4.53292 43.6972C4.54095 43.7678 4.60702 43.8416 4.67272 43.8604C4.88393 43.9204 5.09324 43.9416 5.29987 43.9941C5.08674 44.3137 4.97368 44.698 4.87629 45.0686C4.73497 45.6051 4.8568 46.14 4.96948 46.6682C5.08253 47.1988 5.18147 47.7486 5.37091 48.2572C5.49466 48.589 5.74788 48.8776 6.07292 48.9557C5.94459 49.2945 5.8766 49.6514 5.8808 50.0208C5.88271 50.1666 5.98699 50.2514 6.12449 50.2376C6.34372 50.2157 6.56219 50.1902 6.78105 50.1655C6.71612 50.2992 6.65539 50.4341 6.60879 50.5835C6.53317 50.827 6.47893 51.0776 6.44226 51.3302C6.40865 51.5623 6.39337 51.7976 6.40751 52.029C6.39146 52.218 6.39261 52.4059 6.40445 52.6012C6.43806 53.1663 6.50031 53.7314 6.56486 54.2933C6.69625 55.4337 6.84713 56.5721 6.97928 57.7129C6.99036 57.8082 7.0931 57.8819 7.18782 57.88C7.16414 58.229 7.15994 58.58 7.14008 58.9294C7.11181 59.4302 7.06292 59.9294 7.01136 60.4282C6.90861 61.42 6.77531 62.4165 6.78524 63.4157C6.79021 63.9321 6.8265 64.4494 6.89945 64.9604C6.96896 65.4459 7.13434 65.9204 7.17559 66.409C7.20385 66.74 7.16643 67.0498 7.09844 67.3576C7.03962 67.5098 6.98271 67.6623 6.91931 67.8125C6.7249 68.2718 6.50528 68.7153 6.26771 69.1521C6.03435 69.5812 5.80289 70.0102 5.56111 70.4345C5.5 70.5416 5.43928 70.649 5.37855 70.7565C4.92327 70.6353 4.34195 70.8667 3.98063 71.0953C3.4249 71.4471 3.00476 71.9659 2.64687 72.5188C2.30427 73.0474 1.92577 73.6196 1.8066 74.2525C1.68973 74.8718 1.93149 75.4639 2.48531 75.7588C3.04066 76.0549 3.69837 76.0859 4.30948 76.1525C5.05427 76.2337 5.80098 76.2953 6.54882 76.3376C7.28903 76.3796 8.05102 76.4451 8.79161 76.3961C9.11282 76.3749 9.42373 76.3067 9.69414 76.1208C9.94317 75.9498 10.1548 75.7027 10.3553 75.4749C10.827 74.9388 11.2651 74.3576 11.3923 73.6286C11.4488 73.3039 11.4969 72.9557 11.4117 72.6318C11.4037 72.6004 11.3888 72.5718 11.3785 72.5412C11.4129 72.5016 11.4461 72.4604 11.479 72.4176C11.6088 72.2486 11.7291 72.0737 11.8441 71.8937C12.0809 71.5231 12.2654 71.1643 12.2497 70.7078C12.2493 70.6953 12.2474 70.6827 12.2471 70.6702C12.3292 70.5129 12.3502 70.3172 12.3758 70.1451C12.409 69.9216 12.4487 69.7004 12.4927 69.4788C12.5797 69.0427 12.692 68.6129 12.7967 68.1812C12.9823 67.4141 13.158 66.64 13.0954 65.8498C13.2894 65.867 13.4849 65.831 13.6053 65.6561C13.7088 65.5059 13.6855 65.3286 13.6522 65.1588C13.6232 65.011 13.5934 64.8631 13.5636 64.7153C13.658 64.7 13.7489 64.6517 13.8199 64.5674C13.907 64.4635 13.9391 64.3333 13.9601 64.2008C13.9849 64.0439 14.0334 63.8984 14.0903 63.751C14.1969 63.4745 14.279 63.202 14.4253 62.9427C14.4574 62.8863 14.4914 62.8302 14.5246 62.7741C14.5406 62.84 14.5593 62.9039 14.5788 62.9619C14.6873 63.2784 14.8703 63.5533 15.0402 63.8369C15.0918 63.9231 15.1418 64.0106 15.1911 64.0984C15.1628 64.2392 15.1357 64.3788 15.1078 64.5149C14.9753 65.1592 14.8493 65.8043 14.7351 66.4521C14.5063 67.7498 14.2133 69.0545 13.831 70.3141C13.6438 70.9302 13.4467 71.5482 13.2317 72.1545C13.1469 72.3941 13.0449 72.6396 12.82 72.7718C12.5962 72.9031 12.3441 72.9659 12.1264 73.1125C11.723 73.3843 11.4144 73.8035 11.2303 74.26C11.1409 74.4823 11.1069 74.7357 11.0428 74.967C10.9744 75.2125 10.9137 75.4612 10.8549 75.709C10.7097 76.3235 10.5822 77.0427 10.9366 77.6102C11.1639 77.9737 11.5405 78.2447 11.9404 78.1851C12.0404 78.2769 12.1653 78.3525 12.2314 78.3871C12.5152 78.5365 12.8249 78.6153 13.1431 78.6325C13.3856 78.6455 13.6362 78.6298 13.8772 78.5816C14.0376 78.6463 14.2397 78.6631 14.3726 78.68C14.6804 78.7192 14.9913 78.7176 15.2999 78.6867C15.5979 78.6569 15.8916 78.5874 16.1746 78.4882C16.2781 78.4518 16.3789 78.4106 16.4771 78.3635C16.9515 78.6314 17.6512 78.3945 18.069 78.1263C18.666 77.7427 19.0476 77.1384 19.3249 76.4878C19.9303 75.0667 20.203 73.5063 20.591 72.0141C20.7048 71.5772 20.8271 71.1423 20.9672 70.7137C21.0337 70.5098 21.1044 70.3074 21.1796 70.1066C21.2052 70.0384 21.2327 69.9686 21.2571 69.898C21.2705 69.9172 21.2843 69.9369 21.2969 69.9557C21.4057 70.1188 21.5203 70.2761 21.636 70.4337C21.7052 70.5278 21.8404 70.4788 21.8786 70.3847C21.9802 70.1325 21.9435 69.8667 21.8954 69.6063C21.8614 69.4212 21.8262 69.2361 21.7911 69.0514C21.8369 69.0823 21.8831 69.1129 21.9274 69.147C21.9901 69.1949 22.102 69.1765 22.141 69.1043C22.2246 68.9498 22.2827 68.7941 22.317 68.6318C22.3422 68.709 22.369 68.7859 22.3885 68.8659C22.505 69.3427 22.5286 69.8349 22.4534 70.3208C22.2834 71.4223 21.4 72.3435 21.5994 73.5137C21.6482 73.8004 21.7812 74.0729 21.9939 74.2674C22.0917 74.3572 22.2223 74.427 22.3571 74.429C22.3632 74.429 22.3686 74.4267 22.3747 74.4267C22.4648 74.6965 22.6493 74.9302 22.8735 75.0961C23.1661 75.3129 23.5293 75.42 23.8841 75.4604C24.0889 75.4839 24.2852 75.4796 24.4681 75.3784C24.4895 75.3667 24.5258 75.3537 24.5514 75.3365C24.5652 75.3271 24.5766 75.3161 24.5885 75.3051C24.6011 75.3153 24.6125 75.327 24.6255 75.3368C25.0204 75.6361 25.5651 75.7737 26.0398 75.8631C26.5856 75.9659 27.0833 75.882 27.6096 75.7251C27.8499 75.6537 28.0875 75.5737 28.33 75.5082C28.5901 75.4376 28.8655 75.4106 29.1328 75.3823C29.6534 75.327 30.1767 75.3 30.6961 75.2368C31.2011 75.1753 31.6938 75.0655 32.1815 74.92C32.6784 74.7718 33.1746 74.6176 33.6856 74.531C34.1596 74.4506 34.6393 74.4153 35.1179 74.3819C35.6607 74.3439 36.2053 74.3098 36.7427 74.2188C37.0062 74.1745 37.2641 74.1149 37.5177 74.0282C37.6685 73.9768 37.8003 73.8988 37.9252 73.8082C38.2166 73.7176 38.5057 73.6165 38.7956 73.5333C39.0737 73.4537 39.3544 73.3855 39.6378 73.3286C39.9384 73.2678 40.2574 73.2521 40.543 73.1376C40.7783 73.0431 40.658 72.7165 40.4533 72.6851C40.375 72.6729 40.2906 72.6208 40.215 72.5949C40.1405 72.5698 40.0645 72.5494 39.9881 72.5302C40.1894 72.4561 40.3952 72.3953 40.6065 72.3521C40.7974 72.3129 40.9911 72.2855 41.1855 72.2733C41.3451 72.2635 41.5258 72.2478 41.6862 72.2847C41.7255 72.3004 41.7664 72.3118 41.8084 72.318C42.0036 72.3776 42.1323 72.1165 42.0147 71.9631C41.9135 71.8318 41.7397 71.7765 41.5907 71.7188C41.454 71.6659 41.3138 71.6216 41.1714 71.5867C41.1607 71.5839 41.1496 71.5819 41.1393 71.5796C41.2558 71.547 41.3719 71.5165 41.4853 71.487C41.8585 71.3894 42.2351 71.3106 42.6193 71.2776C43.3889 71.2121 44.1559 71.2078 44.9262 71.26C45.1264 71.2733 45.2608 70.9576 45.0611 70.8525C45.0408 70.8419 45.0194 70.8345 44.9988 70.8239C45.4205 70.8443 45.8429 70.851 46.2627 70.8392C46.4472 70.8341 46.6297 70.8188 46.8127 70.8039C46.8329 70.8023 46.8528 70.8016 46.873 70.8C46.9574 70.7925 47.0422 70.7855 47.1263 70.7765C47.279 70.7608 47.4322 70.7443 47.5853 70.729C48.0632 70.6816 48.5413 70.6357 49.0195 70.5898C49.9962 70.4961 50.9701 70.3647 51.9437 70.2447C53.8683 70.0074 55.793 69.7694 57.7172 69.5278C59.6525 69.2851 61.5878 69.0423 63.5231 68.7996C64.0082 68.7388 64.4933 68.6812 64.978 68.6176C65.4428 68.5565 65.903 68.4553 66.3679 68.3984C67.2654 68.2886 68.197 68.5439 69.0426 68.8247C69.9425 69.1235 70.8179 69.4988 71.759 69.6459C72.2124 69.7169 72.6722 69.7278 73.1268 69.6616C73.3597 69.6274 73.5862 69.5678 73.8158 69.5161C73.9365 69.489 74.0576 69.4647 74.1806 69.4514C74.2443 69.4447 74.3051 69.4294 74.3654 69.4125C74.4132 69.4318 74.462 69.4463 74.5159 69.4706C74.6534 69.5357 74.7592 69.3616 74.7103 69.2404Z" fill="#272525"/>
</g>
</svg>
